<svg width="310" height="91" viewBox="0 0 310 91" fill="none" xmlns="http://www.w3.org/2000/svg">
<path d="M79.6563 16.926C80.4103 16.926 81.0483 17.158 81.5703 17.622C82.1503 18.028 82.4403 18.666 82.4403 19.536C82.4403 19.826 82.3823 20.203 82.2663 20.667L63.0393 76.347C62.8653 76.869 62.5463 77.275 62.0823 77.565C61.6183 77.855 61.1543 78 60.6903 78C60.1103 78 59.5883 77.884 59.1243 77.652C58.6603 77.362 58.3123 76.927 58.0803 76.347L42.6813 38.241L43.3773 38.415L27.9783 76.347C27.7463 76.927 27.3693 77.362 26.8473 77.652C26.3833 77.884 25.8903 78 25.3683 78C24.9043 78 24.4403 77.855 23.9763 77.565C23.5703 77.275 23.2803 76.869 23.1063 76.347L3.8793 20.667C3.7053 20.203 3.6183 19.855 3.6183 19.623C3.6183 18.753 3.9373 18.086 4.5753 17.622C5.2133 17.158 5.8513 16.926 6.4893 16.926C7.0693 16.926 7.5913 17.071 8.0553 17.361C8.5193 17.651 8.8383 18.057 9.0123 18.579L26.4993 69.561L25.5423 69.648L40.6803 31.89C40.8543 31.368 41.1443 30.962 41.5503 30.672C42.0143 30.324 42.5363 30.179 43.1163 30.237C43.6963 30.179 44.1893 30.324 44.5953 30.672C45.0593 30.962 45.4073 31.368 45.6393 31.89L60.6033 69.474L59.6463 69.822L77.0463 18.579C77.2203 18.057 77.5393 17.651 78.0033 17.361C78.4673 17.071 79.0183 16.926 79.6563 16.926ZM110.73 78.87C106.264 78.87 102.32 77.913 98.8983 75.999C95.4763 74.085 92.8083 71.417 90.8943 67.995C88.9803 64.573 88.0233 60.571 88.0233 55.989C88.0233 51.059 88.9803 46.854 90.8943 43.374C92.8663 39.894 95.3893 37.226 98.4633 35.37C101.595 33.456 104.901 32.499 108.381 32.499C110.933 32.499 113.398 32.963 115.776 33.891C118.212 34.761 120.358 36.095 122.214 37.893C124.128 39.633 125.636 41.779 126.738 44.331C127.898 46.883 128.536 49.841 128.652 53.205C128.594 53.901 128.304 54.51 127.782 55.032C127.26 55.496 126.651 55.728 125.955 55.728H91.0683L90.0243 51.03H124.302L123.171 52.074V50.334C122.939 47.608 122.069 45.288 120.561 43.374C119.053 41.46 117.226 40.01 115.08 39.024C112.934 38.038 110.701 37.545 108.381 37.545C106.641 37.545 104.843 37.893 102.987 38.589C101.189 39.285 99.5363 40.387 98.0283 41.895C96.5783 43.345 95.3893 45.23 94.4613 47.55C93.5333 49.812 93.0693 52.509 93.0693 55.641C93.0693 59.063 93.7653 62.166 95.1573 64.95C96.5493 67.734 98.5503 69.938 101.16 71.562C103.828 73.186 106.989 73.998 110.643 73.998C112.673 73.998 114.5 73.708 116.124 73.128C117.748 72.548 119.169 71.794 120.387 70.866C121.605 69.88 122.62 68.865 123.432 67.821C124.07 67.299 124.708 67.038 125.346 67.038C125.926 67.038 126.419 67.27 126.825 67.734C127.289 68.198 127.521 68.72 127.521 69.3C127.521 69.996 127.231 70.605 126.651 71.127C124.911 73.215 122.649 75.042 119.865 76.608C117.081 78.116 114.036 78.87 110.73 78.87ZM166.796 17.1C171.668 17.1 175.467 18.434 178.193 21.102C180.977 23.712 182.369 27.366 182.369 32.064C182.369 34.5 181.847 36.82 180.803 39.024C179.759 41.228 178.222 43.026 176.192 44.418C174.162 45.752 171.639 46.506 168.623 46.68L168.275 44.94C170.421 44.94 172.509 45.259 174.539 45.897C176.627 46.477 178.483 47.434 180.107 48.768C181.731 50.102 183.036 51.784 184.022 53.814C185.008 55.786 185.501 58.193 185.501 61.035C185.501 64.051 184.979 66.661 183.935 68.865C182.949 71.011 181.586 72.751 179.846 74.085C178.164 75.419 176.221 76.405 174.017 77.043C171.813 77.681 169.522 78 167.144 78H143.741C143.045 78 142.436 77.739 141.914 77.217C141.392 76.695 141.131 76.086 141.131 75.39V19.71C141.131 19.014 141.392 18.405 141.914 17.883C142.436 17.361 143.045 17.1 143.741 17.1H166.796ZM166.1 22.233H145.655L146.699 20.667V45.288L145.742 43.983H166.1C169.116 43.925 171.639 42.939 173.669 41.025C175.757 39.111 176.801 36.269 176.801 32.499C176.801 29.309 175.873 26.815 174.017 25.017C172.161 23.161 169.522 22.233 166.1 22.233ZM166.709 49.203H146.264L146.699 48.681V73.65L146.177 72.867H166.883C170.595 72.867 173.698 71.939 176.192 70.083C178.686 68.169 179.933 65.153 179.933 61.035C179.933 58.135 179.324 55.815 178.106 54.075C176.888 52.335 175.264 51.088 173.234 50.334C171.204 49.58 169.029 49.203 166.709 49.203ZM216.507 78.87C212.041 78.87 208.097 77.913 204.675 75.999C201.253 74.085 198.585 71.417 196.671 67.995C194.757 64.573 193.8 60.571 193.8 55.989C193.8 51.059 194.757 46.854 196.671 43.374C198.643 39.894 201.166 37.226 204.24 35.37C207.372 33.456 210.678 32.499 214.158 32.499C216.71 32.499 219.175 32.963 221.553 33.891C223.989 34.761 226.135 36.095 227.991 37.893C229.905 39.633 231.413 41.779 232.515 44.331C233.675 46.883 234.313 49.841 234.429 53.205C234.371 53.901 234.081 54.51 233.559 55.032C233.037 55.496 232.428 55.728 231.732 55.728H196.845L195.801 51.03H230.079L228.948 52.074V50.334C228.716 47.608 227.846 45.288 226.338 43.374C224.83 41.46 223.003 40.01 220.857 39.024C218.711 38.038 216.478 37.545 214.158 37.545C212.418 37.545 210.62 37.893 208.764 38.589C206.966 39.285 205.313 40.387 203.805 41.895C202.355 43.345 201.166 45.23 200.238 47.55C199.31 49.812 198.846 52.509 198.846 55.641C198.846 59.063 199.542 62.166 200.934 64.95C202.326 67.734 204.327 69.938 206.937 71.562C209.605 73.186 212.766 73.998 216.42 73.998C218.45 73.998 220.277 73.708 221.901 73.128C223.525 72.548 224.946 71.794 226.164 70.866C227.382 69.88 228.397 68.865 229.209 67.821C229.847 67.299 230.485 67.038 231.123 67.038C231.703 67.038 232.196 67.27 232.602 67.734C233.066 68.198 233.298 68.72 233.298 69.3C233.298 69.996 233.008 70.605 232.428 71.127C230.688 73.215 228.426 75.042 225.642 76.608C222.858 78.116 219.813 78.87 216.507 78.87ZM243.079 70.953C242.615 70.257 242.383 69.59 242.383 68.952C242.441 68.256 242.818 67.705 243.514 67.299C243.978 66.893 244.5 66.719 245.08 66.777C245.718 66.835 246.298 67.125 246.82 67.647C248.386 69.677 250.271 71.33 252.475 72.606C254.737 73.824 257.405 74.433 260.479 74.433C262.103 74.433 263.698 74.172 265.264 73.65C266.888 73.07 268.222 72.229 269.266 71.127C270.31 69.967 270.832 68.517 270.832 66.777C270.832 64.979 270.31 63.529 269.266 62.427C268.222 61.325 266.859 60.455 265.177 59.817C263.553 59.179 261.813 58.628 259.957 58.164C257.985 57.642 256.071 57.062 254.215 56.424C252.359 55.728 250.706 54.887 249.256 53.901C247.864 52.857 246.733 51.61 245.863 50.16C244.993 48.71 244.558 46.941 244.558 44.853C244.558 42.417 245.225 40.271 246.559 38.415C247.893 36.559 249.691 35.109 251.953 34.065C254.273 33.021 256.883 32.499 259.783 32.499C261.233 32.499 262.799 32.702 264.481 33.108C266.163 33.456 267.816 34.065 269.44 34.935C271.064 35.805 272.514 36.994 273.79 38.502C274.312 39.024 274.573 39.633 274.573 40.329C274.573 40.967 274.283 41.547 273.703 42.069C273.239 42.417 272.688 42.591 272.05 42.591C271.47 42.591 270.977 42.359 270.571 41.895C269.179 40.329 267.526 39.14 265.612 38.328C263.698 37.516 261.639 37.11 259.435 37.11C257.753 37.11 256.158 37.4 254.65 37.98C253.2 38.502 251.982 39.314 250.996 40.416C250.01 41.518 249.517 42.968 249.517 44.766C249.633 46.448 250.213 47.811 251.257 48.855C252.359 49.899 253.78 50.769 255.52 51.465C257.318 52.161 259.319 52.799 261.523 53.379C263.379 53.843 265.148 54.394 266.83 55.032C268.57 55.67 270.078 56.482 271.354 57.468C272.688 58.396 273.732 59.585 274.486 61.035C275.298 62.485 275.704 64.312 275.704 66.516C275.704 69.068 274.979 71.272 273.529 73.128C272.137 74.984 270.252 76.405 267.874 77.391C265.496 78.377 262.857 78.87 259.957 78.87C256.825 78.87 253.78 78.261 250.822 77.043C247.922 75.825 245.341 73.795 243.079 70.953ZM283.512 33.717H303.783C304.479 33.717 305.059 33.978 305.523 34.5C305.987 34.964 306.219 35.544 306.219 36.24C306.219 36.878 305.987 37.429 305.523 37.893C305.059 38.357 304.479 38.589 303.783 38.589H283.512C282.816 38.589 282.207 38.357 281.685 37.893C281.221 37.371 280.989 36.791 280.989 36.153C280.989 35.457 281.221 34.877 281.685 34.413C282.207 33.949 282.816 33.717 283.512 33.717ZM292.473 21.45C293.227 21.45 293.836 21.711 294.3 22.233C294.822 22.755 295.083 23.364 295.083 24.06V67.734C295.083 69.358 295.286 70.576 295.692 71.388C296.156 72.2 296.736 72.751 297.432 73.041C298.128 73.273 298.824 73.389 299.52 73.389C299.984 73.389 300.39 73.331 300.738 73.215C301.144 73.041 301.579 72.954 302.043 72.954C302.565 72.954 303 73.157 303.348 73.563C303.754 73.969 303.957 74.491 303.957 75.129C303.957 75.941 303.493 76.637 302.565 77.217C301.637 77.739 300.535 78 299.259 78C298.737 78 297.954 77.971 296.91 77.913C295.866 77.797 294.793 77.478 293.691 76.956C292.589 76.376 291.661 75.39 290.907 73.998C290.211 72.606 289.863 70.605 289.863 67.995V24.06C289.863 23.364 290.095 22.755 290.559 22.233C291.081 21.711 291.719 21.45 292.473 21.45Z" fill="#535353"/>
</svg>
