<svg width="132" height="61" viewBox="0 0 132 61" fill="none" xmlns="http://www.w3.org/2000/svg">
<path d="M34.8233 19.728C35.1353 19.728 35.3993 19.824 35.6153 20.016C35.8553 20.184 35.9753 20.448 35.9753 20.808C35.9753 20.928 35.9513 21.084 35.9033 21.276L27.9473 44.316C27.8753 44.532 27.7433 44.7 27.5513 44.82C27.3593 44.94 27.1673 45 26.9753 45C26.7353 45 26.5193 44.952 26.3273 44.856C26.1353 44.736 25.9913 44.556 25.8953 44.316L19.5233 28.548L19.8113 28.62L13.4393 44.316C13.3433 44.556 13.1873 44.736 12.9713 44.856C12.7793 44.952 12.5753 45 12.3593 45C12.1673 45 11.9753 44.94 11.7833 44.82C11.6153 44.7 11.4953 44.532 11.4233 44.316L3.4673 21.276C3.3953 21.084 3.3593 20.94 3.3593 20.844C3.3593 20.484 3.4913 20.208 3.7553 20.016C4.0193 19.824 4.2833 19.728 4.5473 19.728C4.7873 19.728 5.0033 19.788 5.1953 19.908C5.3873 20.028 5.5193 20.196 5.5913 20.412L12.8273 41.508L12.4313 41.544L18.6953 25.92C18.7673 25.704 18.8873 25.536 19.0553 25.416C19.2473 25.272 19.4633 25.212 19.7033 25.236C19.9433 25.212 20.1473 25.272 20.3153 25.416C20.5073 25.536 20.6513 25.704 20.7473 25.92L26.9393 41.472L26.5433 41.616L33.7433 20.412C33.8153 20.196 33.9473 20.028 34.1393 19.908C34.3313 19.788 34.5593 19.728 34.8233 19.728ZM47.6815 45.36C45.8335 45.36 44.2015 44.964 42.7855 44.172C41.3695 43.38 40.2655 42.276 39.4735 40.86C38.6815 39.444 38.2855 37.788 38.2855 35.892C38.2855 33.852 38.6815 32.112 39.4735 30.672C40.2895 29.232 41.3335 28.128 42.6055 27.36C43.9015 26.568 45.2695 26.172 46.7095 26.172C47.7655 26.172 48.7855 26.364 49.7695 26.748C50.7775 27.108 51.6655 27.66 52.4335 28.404C53.2255 29.124 53.8495 30.012 54.3055 31.068C54.7855 32.124 55.0495 33.348 55.0975 34.74C55.0735 35.028 54.9535 35.28 54.7375 35.496C54.5215 35.688 54.2695 35.784 53.9815 35.784H39.5455L39.1135 33.84H53.2975L52.8295 34.272V33.552C52.7335 32.424 52.3735 31.464 51.7495 30.672C51.1255 29.88 50.3695 29.28 49.4815 28.872C48.5935 28.464 47.6695 28.26 46.7095 28.26C45.9895 28.26 45.2455 28.404 44.4775 28.692C43.7335 28.98 43.0495 29.436 42.4255 30.06C41.8255 30.66 41.3335 31.44 40.9495 32.4C40.5655 33.336 40.3735 34.452 40.3735 35.748C40.3735 37.164 40.6615 38.448 41.2375 39.6C41.8135 40.752 42.6415 41.664 43.7215 42.336C44.8255 43.008 46.1335 43.344 47.6455 43.344C48.4855 43.344 49.2415 43.224 49.9135 42.984C50.5855 42.744 51.1735 42.432 51.6775 42.048C52.1815 41.64 52.6015 41.22 52.9375 40.788C53.2015 40.572 53.4655 40.464 53.7295 40.464C53.9695 40.464 54.1735 40.56 54.3415 40.752C54.5335 40.944 54.6295 41.16 54.6295 41.4C54.6295 41.688 54.5095 41.94 54.2695 42.156C53.5495 43.02 52.6135 43.776 51.4615 44.424C50.3095 45.048 49.0495 45.36 47.6815 45.36ZM70.881 19.8C72.897 19.8 74.469 20.352 75.597 21.456C76.749 22.536 77.325 24.048 77.325 25.992C77.325 27 77.109 27.96 76.677 28.872C76.245 29.784 75.609 30.528 74.769 31.104C73.929 31.656 72.885 31.968 71.637 32.04L71.493 31.32C72.381 31.32 73.245 31.452 74.085 31.716C74.949 31.956 75.717 32.352 76.389 32.904C77.061 33.456 77.601 34.152 78.009 34.992C78.417 35.808 78.621 36.804 78.621 37.98C78.621 39.228 78.405 40.308 77.973 41.22C77.565 42.108 77.001 42.828 76.281 43.38C75.585 43.932 74.781 44.34 73.869 44.604C72.957 44.868 72.009 45 71.025 45H61.341C61.053 45 60.801 44.892 60.585 44.676C60.369 44.46 60.261 44.208 60.261 43.92V20.88C60.261 20.592 60.369 20.34 60.585 20.124C60.801 19.908 61.053 19.8 61.341 19.8H70.881ZM70.593 21.924H62.133L62.565 21.276V31.464L62.169 30.924H70.593C71.841 30.9 72.885 30.492 73.725 29.7C74.589 28.908 75.021 27.732 75.021 26.172C75.021 24.852 74.637 23.82 73.869 23.076C73.101 22.308 72.009 21.924 70.593 21.924ZM70.845 33.084H62.385L62.565 32.868V43.2L62.349 42.876H70.917C72.453 42.876 73.737 42.492 74.769 41.724C75.801 40.932 76.317 39.684 76.317 37.98C76.317 36.78 76.065 35.82 75.561 35.1C75.057 34.38 74.385 33.864 73.545 33.552C72.705 33.24 71.805 33.084 70.845 33.084ZM91.451 45.36C89.603 45.36 87.971 44.964 86.555 44.172C85.139 43.38 84.035 42.276 83.243 40.86C82.451 39.444 82.055 37.788 82.055 35.892C82.055 33.852 82.451 32.112 83.243 30.672C84.059 29.232 85.103 28.128 86.375 27.36C87.671 26.568 89.039 26.172 90.479 26.172C91.535 26.172 92.555 26.364 93.539 26.748C94.547 27.108 95.435 27.66 96.203 28.404C96.995 29.124 97.619 30.012 98.075 31.068C98.555 32.124 98.819 33.348 98.867 34.74C98.843 35.028 98.723 35.28 98.507 35.496C98.291 35.688 98.039 35.784 97.751 35.784H83.315L82.883 33.84H97.067L96.599 34.272V33.552C96.503 32.424 96.143 31.464 95.519 30.672C94.895 29.88 94.139 29.28 93.251 28.872C92.363 28.464 91.439 28.26 90.479 28.26C89.759 28.26 89.015 28.404 88.247 28.692C87.503 28.98 86.819 29.436 86.195 30.06C85.595 30.66 85.103 31.44 84.719 32.4C84.335 33.336 84.143 34.452 84.143 35.748C84.143 37.164 84.431 38.448 85.007 39.6C85.583 40.752 86.411 41.664 87.491 42.336C88.595 43.008 89.903 43.344 91.415 43.344C92.255 43.344 93.011 43.224 93.683 42.984C94.355 42.744 94.943 42.432 95.447 42.048C95.951 41.64 96.371 41.22 96.707 40.788C96.971 40.572 97.235 40.464 97.499 40.464C97.739 40.464 97.943 40.56 98.111 40.752C98.303 40.944 98.399 41.16 98.399 41.4C98.399 41.688 98.279 41.94 98.039 42.156C97.319 43.02 96.383 43.776 95.231 44.424C94.079 45.048 92.819 45.36 91.451 45.36ZM102.446 42.084C102.254 41.796 102.158 41.52 102.158 41.256C102.182 40.968 102.338 40.74 102.626 40.572C102.818 40.404 103.034 40.332 103.274 40.356C103.538 40.38 103.778 40.5 103.994 40.716C104.642 41.556 105.422 42.24 106.334 42.768C107.27 43.272 108.374 43.524 109.646 43.524C110.318 43.524 110.978 43.416 111.626 43.2C112.298 42.96 112.85 42.612 113.282 42.156C113.714 41.676 113.93 41.076 113.93 40.356C113.93 39.612 113.714 39.012 113.282 38.556C112.85 38.1 112.286 37.74 111.59 37.476C110.918 37.212 110.198 36.984 109.43 36.792C108.614 36.576 107.822 36.336 107.054 36.072C106.286 35.784 105.602 35.436 105.002 35.028C104.426 34.596 103.958 34.08 103.598 33.48C103.238 32.88 103.058 32.148 103.058 31.284C103.058 30.276 103.334 29.388 103.886 28.62C104.438 27.852 105.182 27.252 106.118 26.82C107.078 26.388 108.158 26.172 109.358 26.172C109.958 26.172 110.606 26.256 111.302 26.424C111.998 26.568 112.682 26.82 113.354 27.18C114.026 27.54 114.626 28.032 115.154 28.656C115.37 28.872 115.478 29.124 115.478 29.412C115.478 29.676 115.358 29.916 115.118 30.132C114.926 30.276 114.698 30.348 114.434 30.348C114.194 30.348 113.99 30.252 113.822 30.06C113.246 29.412 112.562 28.92 111.77 28.584C110.978 28.248 110.126 28.08 109.214 28.08C108.518 28.08 107.858 28.2 107.234 28.44C106.634 28.656 106.13 28.992 105.722 29.448C105.314 29.904 105.11 30.504 105.11 31.248C105.158 31.944 105.398 32.508 105.83 32.94C106.286 33.372 106.874 33.732 107.594 34.02C108.338 34.308 109.166 34.572 110.078 34.812C110.846 35.004 111.578 35.232 112.274 35.496C112.994 35.76 113.618 36.096 114.146 36.504C114.698 36.888 115.13 37.38 115.442 37.98C115.778 38.58 115.946 39.336 115.946 40.248C115.946 41.304 115.646 42.216 115.046 42.984C114.47 43.752 113.69 44.34 112.706 44.748C111.722 45.156 110.63 45.36 109.43 45.36C108.134 45.36 106.874 45.108 105.65 44.604C104.45 44.1 103.382 43.26 102.446 42.084ZM119.177 26.676H127.565C127.853 26.676 128.093 26.784 128.285 27C128.477 27.192 128.573 27.432 128.573 27.72C128.573 27.984 128.477 28.212 128.285 28.404C128.093 28.596 127.853 28.692 127.565 28.692H119.177C118.889 28.692 118.637 28.596 118.421 28.404C118.229 28.188 118.133 27.948 118.133 27.684C118.133 27.396 118.229 27.156 118.421 26.964C118.637 26.772 118.889 26.676 119.177 26.676ZM122.885 21.6C123.197 21.6 123.449 21.708 123.641 21.924C123.857 22.14 123.965 22.392 123.965 22.68V40.752C123.965 41.424 124.049 41.928 124.217 42.264C124.409 42.6 124.649 42.828 124.937 42.948C125.225 43.044 125.513 43.092 125.801 43.092C125.993 43.092 126.161 43.068 126.305 43.02C126.473 42.948 126.653 42.912 126.845 42.912C127.061 42.912 127.241 42.996 127.385 43.164C127.553 43.332 127.637 43.548 127.637 43.812C127.637 44.148 127.445 44.436 127.061 44.676C126.677 44.892 126.221 45 125.693 45C125.477 45 125.153 44.988 124.721 44.964C124.289 44.916 123.845 44.784 123.389 44.568C122.933 44.328 122.549 43.92 122.237 43.344C121.949 42.768 121.805 41.94 121.805 40.86V22.68C121.805 22.392 121.901 22.14 122.093 21.924C122.309 21.708 122.573 21.6 122.885 21.6Z" fill="#535353"/>
</svg>
